<svg width="160" height="32" xmlns="http://www.w3.org/2000/svg"><g fill="#FFF" fill-rule="nonzero"><path d="M29.8 14.9c0-5.2-3-9.6-7.3-11.9v9H10.3V3a13.4 13.4 0 0 0 0 23.8v-9h12.3v9c4.3-2.3 7.2-6.7 7.2-11.9M34.1 3.7h6.7v7.5h6.3V3.7h6.6v21.6h-6.6v-8.6h-6.3v8.6h-6.6zM70.6 15.3c0-3 .1-6-7.4-6-3.8 0-7.9.6-8 5h5.5c0-.6.5-1.6 2.3-1.6 1 0 2 .5 2 1.5s-.8 1.2-1.6 1.4c-3 .6-8.9.4-8.9 5.4 0 3.4 2.6 4.8 5.5 4.8 2 0 3.8-.5 5.1-1.9h.1l.2 1.5h6.1c-.7-1-.7-2.4-.7-3.5v-6.6h-.2zM65 19.7c-.1 1.7-1.2 2.5-2.6 2.5-1 0-1.8-.7-1.8-1.5 0-1 .7-1.4 2-1.7.8-.2 1.7-.4 2.4-.8v1.5zM82.1 15.5c0-.6-.3-1.1-.7-1.5a2 2 0 0 0-1.5-.5c-2.3 0-2.6 2-2.6 4 0 1.9.3 3.8 2.6 3.8 1.3 0 2.2-1 2.4-2.3H88c-.7 4.3-4 6.7-8.3 6.7-4.7 0-8.5-3.3-8.5-8.3 0-5 3.8-8.3 8.5-8.3 4.1 0 7.6 2 8 6.4h-5.6zM88.1 3.7h6v10.4L98 9.6h6.9l-5.6 6 6.4 9.7h-7.1l-3.3-5.7-1 1.2v4.5h-6zM106 9.6h5.8v2c1.2-1.6 2.8-2.4 5.1-2.4 2.8 0 5.4 1.8 5.4 5.4v10.7h-6v-8.2c0-1.9-.2-3-2-3-1 0-2.3.4-2.3 3v8.3h-6V9.6zM140.4 18.8c0-6.2-2.7-9.7-9-9.7a8 8 0 0 0-8.3 8.3c0 5.3 3.8 8.3 8.9 8.3 3.6 0 6.9-1.6 8-5h-5.6c-.4.8-1.6 1.1-2.5 1.1-1.9 0-2.9-1.3-3-3.1h11.5zm-11.5-3.1c.3-1.8 1.3-2.6 3-2.6s2.7 1.2 2.7 2.6h-5.7z"/><path d="M151.5 24c-.5 1.5-1 3.2-2 4.5-1.6 2-4 1.9-6.3 1.9h-2.7v-4.8h1.4c.6 0 1.4 0 1.8-.2.4-.2.6-.5.6-1.2a69 69 0 0 0-2.6-7.5L139 9.5h6.4l2.5 9 2.6-9h6.2L151.5 24z"/></g></svg>